<?xml version="1.0" encoding="UTF-8"?>
<svg version="1.1" viewBox="0 0 2048 1000" width="1280" height="800" xmlns="http://www.w3.org/2000/svg">
<path transform="translate(1985,46)" d="m0 0h10l1 3v202l-1 8-1 1-20 1-1298 1h-358l-151-1-21-2-11-3-2-5 4-2 26-4 55-6 40-3 81-9 32-3 45-6 33-3 60-8 53-4 63-8 33-3 62-8 44-4 69-8 32-3 41-6 42-4 56-8 47-4 68-8 34-3 65-8 43-4 56-7 71-6 24-3 13-2 35-4 44-6 44-4 66-8 37-3 45-6 60-7 43-6 84-8 32-3 45-3z" fill="#EA121C"/>
<path transform="translate(1379,592)" d="m0 0h159l29 4 29 11 21 11 9 8 5 5 6 8 8 13 6 13 6 42v34l-4 29-4 11-11 21-7 10-5 6-8 7-23 13 5 19 8 18 5 14 5 11 7 18 6 13 4 11 7 17 10 22 4 9 6 8 1 6h2l1-13 8-32 4-17 7-22 7-25 8-28 7-23 6-21 6-20 5-17 6-21 7-25 10-34 6-20 5-19 5-17 6-21 11-35 2-2h84l4 3 5 19 6 24 5 19 6 24 6 22 5 19 6 21 5 19 6 20 5 21 5 19 5 21 6 21 5 21 7 25 6 23 5 17 5 20 6 20 6 26 5 18v5l-2 1-48 1h-24l-6-2-4-9-4-15-4-24-9-40-5-18-1-1-125-1-2 10-6 21-6 36-9 42-144 1-2-1-9-27-6-20-5-13-6-18-6-16-8-20-16-42-8-20-2-4-2-1h-63l1 51 1 99v31h-78l-1-2v-444zm75 61-1 1v143h16l56-3 12-3 19-8 8-6 10-14 2-4 4-18v-37l-6-18-9-13-12-10-14-6-15-4zm364 31-6 9-7 28-6 21-4 20-8 28-4 19-7 24-6 30v5h92l-2-13-6-29-4-20-7-27-3-15-8-32-3-17-8-30z" fill="#072F68"/>
<path transform="translate(658,594)" d="m0 0h164l21 2 17 5 20 8 8 5 6 3 7 7 8 7 9 10 12 23 6 29 3 27v11l-4 28-5 19-8 16-6 11-8 9-5 6-8 7-19 10-1 3 3 12 8 20 9 20 5 13 7 17 9 21 8 20 6 14 6 16 14 36 2 11-67 1-17-1-4-2-10-30-9-26-10-29-6-15-8-22-7-20-6-16-6-21-68-1 2 79v102l-1 1h-78v-441zm89 58-12 1-1 1v143h17l52-3 15-3 18-8 5-5 8-7 8-18 5-21v-23l-4-12-8-16-7-10-14-10-13-6-9-2-18-1z" fill="#072F68"/>
<path transform="translate(86,594)" d="m0 0h141l31 2 15 3 20 7 10 4 14 8 5 5 7 6 7 9 6 9 7 10 5 13 5 10 5 21v61l-5 24-6 12-3 8-8 11-7 9-13 13-10 8-19 11-13 4-22 4-23 2-57 3-10 2-2 1-1 21-2 144-1 1h-75l-3-2v-417l1-21zm83 59-4 1-1 13-1 69v62l1 8 7 2h16l41-4 16-5 16-6 7-9 5-5 5-12 6-18 1-5v-29l-4-15-9-17-13-13-10-9-12-6-7-2z" fill="#083069"/>
<path transform="translate(977,592)" d="m0 0h258l2 1 1 59-1 1-33 1-86 1h-64v125h42l66 1 35 1v59l-33 1-71 1h-39v138h182l1 1 1 57-1 1-55 1-90 1h-113l-2-5z" fill="#083069"/>
<path transform="translate(383,594)" d="m0 0h260l1 1v57l-1 1h-185l1 16 1 30v52l-1 24-1 7h143v59l-33 1-71 1h-37v138h184l1 1v58h-262z" fill="#072F69"/>
<path transform="translate(1252,594)" d="m0 0h77l1 4v441l-1 1h-76l-1-10z" fill="#062E68"/>
<path transform="translate(316,305)" d="m0 0h17l22 1 15 2 22 8 10 7 7 10 5 7 5 19 1 4v30l-6 20-8 12-3 3-6 3-5 5 1 9 5 20 8 19 6 16 5 12 7 16 7 19-1 1h-36l-9-1-8-7-3-5-6-20-7-19-5-16-9-22-3-9-27-1v43l-1 56-1 1h-45v-241l1-1zm0 34-2 49v18l2 7 2 1h18l16-3 9-4 6-4 5-10 3-10v-22l-4-10-5-4-8-4-7-2-27-2z" fill="#082F69"/>
<path transform="translate(157,301)" d="m0 0h26l12 3 10 2 11 6 12 10 10 15 8 18 3 16v8l-3 4-3 1h-32l-5-6-5-16-6-10-5-5-15-5h-13l-15 7-5 1-5 13-7 14-4 22-1 11v38l5 25 4 10 7 14 7 8 10 6 6 2h15l14-8 7-10 3-4 5-15 3-6v-7l-2-1-39-2-3-4-1-6 1-21 1-9h80l1 1v127l-1 1h-11l-9-3-10-10-7 3-15 7-9 4-6 1h-34l-13-4-7-3-10-7-10-8-9-11-4-6-7-20-3-11-2-19v-70l3-23 5-13 6-15 7-7 6-9 13-11 14-8 15-4z" fill="#083069"/>
<path transform="translate(836,301)" d="m0 0h31l17 5 10 5 11 8 7 8 5 5 9 16 4 11 6 29 2 13 1 13v30l-2 19-4 23-4 18-8 11-6 9-7 6-6 7-12 7-16 6-6 1h-37l-15-5-16-9-8-8-7-6-12-24-6-24-3-17-2-31 2-35 3-19 8-24 9-14 3-6 5-3 6-9 11-7 6-4zm5 37-11 6-9 9-4 11-7 21-2 15-1 16v23l1 19 5 19 5 14 3 7 11 12 10 6h18l11-6 10-11 3-6 7-26 2-10 1-13v-33l-1-16-4-19-7-20-8-10-4-4-10-4z" fill="#083069"/>
<path transform="translate(437,306)" d="m0 0h39l1 1 1 49 1 82 1 34 4 21 8 11 8 5 9 2h14l16-5 4-6 6-13 1-174 1-6 5-1h30l4 3v174l-2 22-4 10-8 10-9 10-9 7-13 6-12 3h-46l-12-3-12-9-15-14-6-8-2-3-2-12-1-15-1-89v-90z" fill="#0A316A"/>
<path transform="translate(613,307)" d="m0 0h85l24 5 15 8 7 8 5 5 6 9 3 6 1 6v57l-1 12-5 5-6 4-9 9-12 8-22 6-20 2-26 2-2 1-1 87-1 1h-41zm42 32-2 2 1 53 1 27 1 1h11l14-1 20-5 7-8 5-10 3-7v-27l-5-9-7-7-10-6-9-3z" fill="#0B326B"/>
</svg>
